<svg xmlns="http://www.w3.org/2000/svg" width="100%" height="auto" viewBox="0 0 819 819" version="1.1" preserveAspectRatio="xMidYMid meet" style="max-width: 100%; max-height: 70vh;">
	<path d="M 0 409.501 L 0 819.002 409.750 818.751 L 819.500 818.500 819.751 409.250 L 820.002 -0 410.001 -0 L 0 0 0 409.501 M 0.495 410 C 0.495 635.225, 0.610 727.363, 0.750 614.750 C 0.890 502.138, 0.890 317.863, 0.750 205.250 C 0.610 92.638, 0.495 184.775, 0.495 410 M 386 96.715 C 381.476 97.516, 369.597 103.820, 364.229 108.268 C 356.053 115.043, 349.291 123.660, 344.428 133.500 C 340.105 142.248, 336 155.618, 336 160.951 C 336 163.467, 335.615 163.655, 327.220 165.242 C 294.132 171.497, 269.610 196.675, 263.942 230.213 C 263.143 234.940, 262.318 237.066, 261.154 237.398 C 213.885 250.867, 189.673 262.964, 171.375 282.251 C 167.446 286.393, 162.901 292.545, 160.772 296.603 C 153.640 310.196, 154.031 300.829, 154.015 458.540 C 153.998 617.197, 153.483 605.662, 161.235 620.211 C 180.628 656.608, 241.632 685.134, 323.482 696.078 C 342.547 698.627, 384.391 699.726, 401.633 698.130 C 416.545 696.750, 423.679 694.609, 441 686.318 C 456.483 678.906, 473.148 673.745, 487.353 671.963 C 505.248 669.718, 515.054 671.761, 538 682.513 C 554.425 690.209, 561.886 692.322, 573 692.423 C 599.276 692.661, 604.458 674.425, 582.995 657.251 C 579.763 654.664, 577.231 652.436, 577.369 652.298 C 577.507 652.160, 580.067 652.982, 583.060 654.124 C 591.216 657.237, 608.405 660.931, 618 661.633 C 647.296 663.775, 667.093 641.984, 650.688 625.654 C 645.866 620.855, 635.193 615.015, 626.500 612.419 C 618.650 610.075, 617.566 609, 623.050 608.999 C 629.784 608.998, 645.365 604.414, 655.920 599.328 C 667.332 593.830, 674.237 587.384, 678.767 578 C 685.857 563.311, 683.340 552.557, 671.343 546.289 L 666.005 543.500 665.988 429 C 665.969 302.914, 666.202 307.909, 659.766 295.593 C 653.636 283.859, 630.975 264.120, 614.830 256.449 C 612.081 255.143, 610.745 253.620, 609.508 250.381 C 605.970 241.117, 594.581 231.848, 584.654 230.154 C 580.659 229.472, 580.495 229.294, 579.877 224.974 C 577.802 210.479, 568.081 202.020, 553.500 202.020 C 548.124 202.020, 545.249 202.602, 541.105 204.531 C 538.137 205.912, 535.639 206.921, 535.552 206.771 C 530.976 198.879, 527.646 195.419, 521.500 192.171 C 517.230 189.914, 515.259 189.528, 508 189.526 C 498.248 189.524, 493.382 191.450, 486.500 198.039 L 482.500 201.868 477 200.387 C 463.108 196.646, 450.080 203.409, 443.631 217.709 C 441.864 221.628, 441.657 221.751, 435.761 222.367 C 432.431 222.715, 427.144 223, 424.012 223 L 418.317 223 417.059 218.750 C 416.367 216.412, 413.730 210.450, 411.200 205.500 C 407.437 198.137, 404.862 194.772, 397.050 187 C 386.366 176.372, 378.522 171.317, 367.442 167.917 C 359.009 165.330, 358.991 165.293, 361.484 155.721 C 365.556 140.088, 376.336 126.214, 387.606 122.100 C 396.295 118.928, 398.133 117.816, 400.159 114.500 C 404.264 107.783, 401.270 99.002, 394.207 97.041 C 390.384 95.979, 390.199 95.972, 386 96.715 M 334 187.690 C 312.555 191.276, 294.015 208.707, 288.509 230.460 C 281.612 257.705, 299.661 287.201, 327.644 294.416 C 346.491 299.275, 366.519 293.673, 380.609 279.600 C 391.607 268.616, 396.320 257.524, 396.374 242.500 C 396.469 216.188, 378.653 193.848, 353.287 188.473 C 346.793 187.097, 339.355 186.795, 334 187.690 M 478.418 235.969 C 475.272 237.242, 471.158 242.640, 470.448 246.427 C 469.540 251.263, 472.882 258.371, 477.086 260.544 C 484.496 264.377, 493.487 261.238, 496.472 253.778 C 498.430 248.885, 497.891 244.402, 494.885 240.581 C 491.012 235.657, 484.027 233.700, 478.418 235.969 M 534.121 236.710 C 525.012 241.198, 524.676 254.810, 533.531 260.612 C 534.997 261.573, 538.076 262.333, 540.500 262.333 C 554.536 262.333, 559.204 242.595, 546.583 236.606 C 542.286 234.567, 538.405 234.600, 534.121 236.710 M 250.629 264.597 C 222.297 274.439, 204.062 284.206, 191.999 296 C 182.220 305.561, 179.486 310.937, 179.539 320.500 C 179.586 328.909, 181.508 333.112, 189.109 341.429 C 195.816 348.767, 203.976 354.543, 217.261 361.354 C 296.284 401.871, 452.682 409.907, 558.723 378.899 C 573.573 374.557, 596.368 365.623, 605 360.762 C 641.917 339.974, 650.825 317.020, 630.098 296.086 C 625.119 291.057, 615.467 283.876, 611.829 282.493 C 611.038 282.192, 609.409 283.712, 607.808 286.244 C 601.013 296.986, 589.235 305.864, 574.781 311.139 C 555.936 318.017, 536.604 320.952, 509.974 320.980 C 483.198 321.009, 468.384 318.881, 448.393 312.136 C 434.075 307.306, 423.373 301.178, 414.602 292.788 L 407.585 286.076 400.748 293.495 C 375.242 321.176, 335.382 327.871, 303.112 309.895 C 287.653 301.284, 272.072 282.774, 266.997 266.991 C 265.761 263.146, 264.468 260.028, 264.125 260.063 C 263.781 260.097, 257.708 262.137, 250.629 264.597 M 177.634 480.250 C 176.864 610.905, 176.462 602.238, 183.819 613.574 C 191.387 625.237, 208.561 638.669, 227.100 647.424 C 252.407 659.376, 292.657 669.825, 332 674.657 C 351.956 677.108, 397.222 677.198, 407.594 674.808 C 428.830 669.913, 445.961 653.420, 453.844 630.280 L 456.494 622.500 456.546 589.500 C 456.602 553.484, 456.968 550.664, 462.532 543.370 C 473.527 528.955, 487.958 536.728, 493.941 560.289 C 495.942 568.166, 496.462 567.610, 497.483 556.500 C 499.878 530.433, 503.164 517.836, 509.122 511.878 C 512.576 508.424, 513.539 508, 517.923 508 C 521.731 508, 523.528 508.573, 525.853 510.530 C 528.948 513.134, 531.777 519.925, 532.193 525.750 C 532.494 529.964, 533.224 529.850, 535.416 525.250 C 538.631 518.504, 547.998 504.883, 553.303 499.240 C 564.801 487.011, 578.455 485.722, 585.067 496.241 C 586.856 499.088, 587.061 500.702, 586.689 509 C 586.409 515.229, 585.497 520.738, 584.040 525 C 581.782 531.602, 574.148 547.323, 567.604 558.846 C 565.622 562.336, 564 565.449, 564 565.763 C 564 566.077, 571.763 558.693, 581.250 549.355 C 600.809 530.103, 607.007 526, 616.525 526 C 623.360 526, 626.497 528.400, 627.830 534.651 C 628.875 539.550, 627.210 548.768, 624.713 551.912 C 624.046 552.751, 625.075 552.410, 627 551.153 C 630.305 548.995, 634.792 546.793, 639.658 544.941 C 641.482 544.247, 641.883 543.141, 642.244 537.810 C 642.479 534.339, 642.758 493.525, 642.863 447.110 C 643.049 364.794, 643.008 362.755, 641.181 364.110 C 640.152 364.875, 636.202 367.887, 632.405 370.805 C 622.672 378.284, 596.571 390.893, 578.177 397.002 C 514.099 418.283, 429.946 425.661, 345 417.447 C 274.620 410.641, 212.779 391.603, 185.280 368.276 C 181.859 365.374, 178.895 363, 178.693 363 C 178.491 363, 178.014 415.762, 177.634 480.250 M 223.014 438.752 C 218.521 441.005, 216.805 444.370, 217.348 449.863 C 218.542 461.940, 234.317 472.507, 243.817 467.594 C 253.714 462.477, 250.762 447.695, 238.500 440.962 C 231.650 437.201, 227.337 436.585, 223.014 438.752 M 510.104 458.106 C 502.141 462.085, 498.500 467.152, 498.500 474.254 C 498.500 478.664, 498.886 479.508, 502.362 482.693 C 505.898 485.933, 506.629 486.194, 511.007 485.773 C 520.721 484.840, 529.806 476.897, 530.752 468.510 C 532.132 456.264, 522.999 451.662, 510.104 458.106 M 321.388 460.980 C 314.632 463.710, 313.055 472.542, 317.947 480.255 C 322.339 487.181, 327.947 490.500, 335.259 490.500 C 340.665 490.500, 341.411 490.224, 344.082 487.234 C 349.553 481.111, 347.586 471.600, 339.587 465.499 C 333.425 460.799, 326.247 459.017, 321.388 460.980 M 421.648 472.027 C 413.185 474.564, 406.500 482.601, 406.500 490.241 C 406.500 494.637, 406.893 495.514, 410.235 498.577 C 413.201 501.295, 414.804 502, 418.017 502 C 423.169 502, 427.659 500.116, 432.374 495.977 C 437.008 491.908, 439 488.157, 439 483.500 C 439 474.226, 431.299 469.134, 421.648 472.027 M 222.803 525.043 C 220.022 527.824, 219.797 528.540, 220.196 533.346 C 220.774 540.324, 225.102 546.649, 231.787 550.288 C 242.753 556.256, 252 551.920, 252 540.811 C 252 531.687, 240.647 522, 229.955 522 C 226.710 522, 225.206 522.640, 222.803 525.043 M 301.315 530.464 C 295.347 533.059, 293.511 540.126, 296.880 547.541 C 302.065 558.958, 317.375 563.741, 324.218 556.083 C 326.432 553.604, 326.999 552.003, 326.996 548.234 C 326.990 540.170, 320.972 533.301, 311.386 530.416 C 305.711 528.708, 305.348 528.709, 301.315 530.464 M 382.353 547.926 C 376.216 551.668, 375.837 561.087, 381.550 567.877 C 384.729 571.655, 393.392 576, 397.746 576 C 405.463 576, 410.617 570.169, 409.745 562.426 C 409.057 556.329, 405.694 552.244, 398.602 548.888 C 391.495 545.526, 386.750 545.245, 382.353 547.926 M 249.357 590.992 C 246.137 592.291, 244 595.989, 244 600.262 C 244 610.181, 255.250 621, 265.564 621 C 275.337 621, 279.957 611.716, 275.009 602.018 C 270.537 593.251, 257.569 587.677, 249.357 590.992 M 336.357 606.932 C 331.317 609.107, 329.389 616.985, 332.449 622.901 C 334.344 626.565, 340.439 631.867, 344.897 633.730 C 349.870 635.808, 356.561 634.893, 359.756 631.699 C 363.478 627.977, 363.974 620.671, 360.820 616.031 C 355.971 608.897, 342.990 604.069, 336.357 606.932" stroke="none" fill="black" fill-rule="evenodd"/>
</svg>